HIERARCHY
ROOT Hips
{
  OFFSET -17.2352 91.2872 38.4635
  CHANNELS 6 Xposition Yposition Zposition Zrotation Xrotation Yrotation
  JOINT RightUpLeg
  {
    OFFSET -8.9458 -8.66707 0.101652
    CHANNELS 3 Zrotation Xrotation Yrotation
    JOINT RightLeg
    {
      OFFSET 0 -44.4227 1.3727
      CHANNELS 3 Zrotation Xrotation Yrotation
      JOINT RightFoot
      {
        OFFSET 0.253549 -42.0924 -1.46059
        CHANNELS 3 Zrotation Xrotation Yrotation
        JOINT RightToes
        {
          OFFSET 0.04 -4.41509 8.4991
          CHANNELS 3 Zrotation Xrotation Yrotation
          End Site
          {
            OFFSET -0.08 -0.137448 9.77979
          }
        }
      }
    }
  }
  JOINT Spine
  {
    OFFSET 0 11.8905 0
    CHANNELS 3 Zrotation Xrotation Yrotation
    JOINT Spine1
    {
      OFFSET 0 25.6574 0.127663
      CHANNELS 3 Zrotation Xrotation Yrotation
      JOINT HEad
      {
        OFFSET 0 8.73416 0.011341
        CHANNELS 3 Zrotation Xrotation Yrotation
        End Site
        {
          OFFSET -0.29 12.7742 2.51395
        }
      }
      JOINT LeftShoulder1
      {
        OFFSET 8.99 -0.362252 -0.22
        CHANNELS 3 Zrotation Xrotation Yrotation
        JOINT LeftArm
        {
          OFFSET 10.2827 -0.00337999 0.322123
          CHANNELS 3 Zrotation Xrotation Yrotation
          JOINT LeftForeArm
          {
            OFFSET 32.7669 0.099144 -1.42434
            CHANNELS 3 Zrotation Xrotation Yrotation
            JOINT LeftHand
            {
              OFFSET 27.5643 0.085362 1.02216
              CHANNELS 3 Zrotation Xrotation Yrotation
              End Site
              {
                OFFSET 16.7443 -0.6 1.50291
              }
            }
          }
        }
      }
      JOINT RightShoulder
      {
        OFFSET -8.99 -0.362252 -0.22
        CHANNELS 3 Zrotation Xrotation Yrotation
        JOINT RightArm
        {
          OFFSET -10.2827 -0.00338 0.322123
          CHANNELS 3 Zrotation Xrotation Yrotation
          JOINT RightForeArm
          {
            OFFSET -32.8971 0.099144 -1.42434
            CHANNELS 3 Zrotation Xrotation Yrotation
            JOINT RightHand
            {
              OFFSET -27.4921 0.085362 1.02216
              CHANNELS 3 Zrotation Xrotation Yrotation
              End Site
              {
                OFFSET -16.6312 -0.6 1.50291
              }
            }
          }
        }
      }
    }
  }
  JOINT LeftUpLeg
  {
    OFFSET 8.9458 -8.66707 0.101652
    CHANNELS 3 Zrotation Xrotation Yrotation
    JOINT LeftLeg
    {
      OFFSET 0 -44.4227 1.3727
      CHANNELS 3 Zrotation Xrotation Yrotation
      JOINT LeftFoot
      {
        OFFSET -0.253549 -42.0924 -1.46059
        CHANNELS 3 Zrotation Xrotation Yrotation
        JOINT LeftToes
        {
          OFFSET -0.04 -4.41509 8.4991
          CHANNELS 3 Zrotation Xrotation Yrotation
          End Site
          {
            OFFSET 0.08 -0.047448 9.77979
          }
        }
      }
    }
  }
}
MOTION
Frames:	10
Frame Time:	0.0166667
-5.63598 96.9307 43.9217 9.47416 -9.42547 46.9034 -5.79188 -12.8106 22.7684 18.4164 17.8772 -53.1805 -48.5565 -2.62747 -4.2965 0.0462048 0.000533403 0.662642 12.7417 22.4604 8.4859 7.33227 1.06983 -8.49807 18.2959 23.1586 -21.6514 -3.18055e-015 0 -0 -129.622 -41.9049 -82.6304 62.5394 39.3354 -171.555 -21.4013 -41.0188 -15.7939 16.5679 18.5722 10.8966 -167.968 -20.4019 -173.015 133.515 50.9565 -20.184 -19.0914 22.3673 12.9451 27.2016 9.39583 -13.3813 -49.3902 12.9721 51.3232 23.9737 -10.4408 3.00912 -1.32763e-009 1.55999e-007 -4.87307e-009 
-6.48371 97.5308 45.3034 9.70161 -8.83445 48.2681 -6.4958 -11.4492 25.1732 19.2622 14.501 -58.3511 -49.1767 -1.86739 -3.87523 0.0462048 0.000533403 0.662642 10.6694 20.8244 7.86402 6.78596 1.06558 -7.91838 20.8227 24.2574 -22.0122 1.59028e-015 0 6.36111e-015 -126.397 -41.6029 -80.2317 62.5715 41.3097 -170.493 -21.1607 -38.3609 -15.2422 14.911 18.9901 10.3449 -165.057 -20.0095 -174.713 134.325 50.7861 -21.3714 -18.1243 26.3243 12.9584 28.2796 9.96943 -13.2935 -49.6093 11.8127 48.9835 24.4728 -10.2543 2.95097 -1.32762e-009 1.55999e-007 -4.87307e-009 
-7.36871 97.8868 46.7095 9.91034 -8.35161 49.4794 -6.94527 -10.8713 27.228 20.0713 12.4147 -64.5306 -49.3928 -0.700221 -3.14814 0.0462048 0.000533403 0.662642 9.0404 20.7555 6.30345 6.21299 0.980842 -7.21832 22.066 24.4628 -21.0756 -3.18055e-015 1.59028e-015 -6.36111e-015 -125.255 -41.185 -79.3829 62.2866 44.3626 -169.41 -20.4864 -34.8702 -14.4103 14.0621 18.0581 9.03876 -164.274 -20.9164 -177.776 134.801 50.6066 -22.2684 -19.0083 22.9352 13.422 29.1597 10.1916 -13.1301 -50.3101 10.7266 47.0272 25.7016 -10.0381 2.99178 -1.32762e-009 1.55999e-007 -4.87306e-009 
-8.41068 98.1136 48.0428 10.1354 -7.98585 50.5466 -7.09933 -10.8551 29.0078 20.7002 10.6179 -70.0553 -50.0933 0.306045 -2.4844 0.0462048 0.000533403 0.662642 7.99018 22.0601 4.06884 5.61602 0.889259 -6.49302 22.1179 23.8404 -19.0457 -1.59028e-015 1.59028e-015 6.36111e-015 -125.952 -40.4952 -79.8636 61.5355 48.2262 -168.109 -19.5487 -30.5046 -13.2966 13.9478 15.9464 7.17626 -165.425 -22.7461 178.163 135.068 50.4661 -22.9277 -18.4046 25.4671 13.496 29.8122 10.0602 -12.9025 -51.1371 9.89149 45.4742 27.1229 -9.72298 3.06196 -1.32762e-009 1.55999e-007 -4.87306e-009 
-9.62104 98.2477 49.2669 10.3838 -7.7239 51.4735 -7.0521 -11.1221 30.4955 21.1807 9.17911 -74.8555 -51.0343 1.22605 -1.80028 0.0462048 0.000533403 0.662642 7.29242 23.3003 2.03709 4.97446 0.704969 -5.70999 22.0361 23.4211 -17.3609 1.76556e-031 -1.59028e-015 6.36111e-015 -126.64 -39.614 -79.6435 60.1177 52.7088 -166.3 -18.5062 -25.518 -12.0874 13.9207 14.2454 5.40361 -166.795 -24.4497 174.358 135.093 50.3902 -23.2674 -18.9431 23.7198 13.7548 30.2953 9.60234 -12.6343 -51.9651 9.4045 44.334 28.5178 -9.35431 3.13182 -1.32762e-009 1.55999e-007 -4.87307e-009 
-10.9568 98.3249 50.364 10.6489 -7.5388 52.2725 -7.08813 -11.2085 30.5073 21.4864 8.07445 -77.7208 -52.1817 2.02862 -1.194 0.0462048 0.000533403 0.662642 6.87423 24.4394 0.225092 4.35668 0.613415 -4.99012 21.7359 23.0354 -15.8559 -4.77083e-015 1.59028e-015 -3.18055e-015 -127.575 -38.4474 -79.1618 57.7236 57.6061 -163.608 -17.5219 -19.9241 -10.811 14.0334 12.7269 3.73688 -168.524 -26.0504 170.723 135.007 50.3765 -23.4058 -18.5095 25.3614 13.7391 30.6436 8.86386 -12.3445 -52.677 9.29409 43.5586 29.7256 -8.94984 3.18064 -1.32763e-009 1.55999e-007 -4.87307e-009 
-12.3641 98.3518 51.3374 10.9195 -7.40086 52.9576 -7.20005 -11.1355 29.2001 21.7237 7.20742 -78.8472 -53.5825 2.70784 -0.70341 0.0462048 0.000533403 0.662642 6.67074 25.4571 -1.36726 3.75002 0.52755 -4.28594 21.3072 22.7191 -14.6093 -1.59028e-015 -3.18055e-015 -6.36111e-015 -128.667 -36.9889 -78.4392 53.8357 62.6866 -159.473 -16.71 -13.9486 -9.58486 14.2373 11.4594 2.25588 -170.438 -27.4405 167.408 134.816 50.4076 -23.3423 -18.8173 24.5182 13.8125 30.903 7.88508 -12.0468 -53.2566 9.55282 43.0869 30.6879 -8.5273 3.19622 -1.32762e-009 1.55999e-007 -4.87307e-009 
-13.7819 98.3359 52.2045 11.1853 -7.28521 53.5399 -7.35051 -10.8783 26.7212 21.8899 6.49653 -78.3848 -55.2423 3.28032 -0.348371 0.0462048 0.000533403 0.662642 6.62411 26.3417 -2.74368 3.15907 0.443737 -3.60174 20.7825 22.4488 -13.6116 1.59028e-015 1.59028e-015 -3.18055e-015 -129.908 -35.2487 -77.594 47.5635 67.6626 -152.985 -16.1454 -7.6982 -8.41646 14.5084 10.4171 0.994907 -172.442 -28.573 164.463 134.616 50.4555 -23.1903 -18.5105 25.6227 13.7213 31.0972 6.71763 -11.7504 -53.6984 10.1556 42.8416 31.3979 -8.09477 3.17591 -1.32763e-009 1.55999e-007 -4.87307e-009 
-15.1909 98.2932 52.9897 11.4366 -7.16686 54.0223 -7.41287 -10.6861 24.3865 22.0084 5.73543 -77.6429 -57.1107 3.85084 -0.00984131 0.0462048 0.000533403 0.662642 6.6766 27.0858 -3.9049 2.59272 0.363276 -2.9476 20.1879 22.206 -12.844 1.59028e-015 0 -3.18055e-015 -131.277 -33.2643 -76.7218 37.423 72.1353 -142.652 -15.8435 -1.40271 -7.35554 14.8169 9.57321 -0.0310354 -174.441 -29.4205 161.932 134.415 50.4974 -22.9798 -18.7048 25.2925 13.6917 31.3445 5.46579 -11.4939 -53.7732 10.9537 42.6919 31.7124 -7.76396 3.1315 -1.32762e-009 1.55999e-007 -4.87306e-009 
-16.4281 98.075 53.6648 11.6657 -7.04085 54.3951 -7.99618 -10.5414 22.1502 23.1033 4.65715 -76.7929 -59.2798 4.06792 0.00804597 0.0462048 0.000533403 0.662642 6.78557 27.6969 -4.84451 2.0598 0.287468 -2.33352 19.5458 21.9809 -12.2845 1.76556e-031 -1.59028e-015 6.36111e-015 -132.743 -31.0984 -75.8909 21.5686 75.5133 -126.638 -15.7959 4.78946 -6.38178 15.1347 8.90559 -0.828869 -176.363 -29.977 159.817 134.269 50.5269 -22.7936 -18.5419 26.0846 13.5757 30.6402 3.84216 -10.9104 -54.3242 13.5317 42.6281 35.3835 -6.58376 3.35433 -1.32762e-009 1.55999e-007 -4.87307e-009 
